<svg xmlns="http://www.w3.org/2000/svg" xmlns:xlink="http://www.w3.org/1999/xlink" contentStyleType="text/css" data-diagram-type="CLASS" height="958px" preserveAspectRatio="none" style="width:1289px;height:958px;background:#FBFCFE;" version="1.1" viewBox="0 0 1289 958" width="1289px" zoomAndPan="magnify"><title>Trajectory Planning UML</title><defs/><g><rect fill="#FBFCFE" height="958" style="stroke:none;stroke-width:1;" width="1289" x="0" y="0"/><g class="title" data-source-line="1"><text fill="#000000" font-family="sans-serif" font-size="14" font-weight="bold" lengthAdjust="spacing" textLength="194.0313" x="540.5269" y="22.9951">Trajectory Planning UML</text></g><!--class MotionProfileSettings--><g class="entity" data-entity="MotionProfileSettings" data-source-line="14" data-uid="ent0002" id="entity_MotionProfileSettings"><rect fill="#F8F5EF" height="137.75" rx="6" ry="6" style="stroke:#284B63;stroke-width:0.5;" width="180.9688" x="143" y="186.2969"/><ellipse cx="158" cy="206.4297" fill="#ADD1B2" rx="11" ry="11" style="stroke:#181818;stroke-width:1;"/><path d="M160.9688,212.0703 Q160.3906,212.3672 159.75,212.5078 Q159.1094,212.6641 158.4063,212.6641 Q155.9063,212.6641 154.5781,211.0234 Q153.2656,209.3672 153.2656,206.2422 Q153.2656,203.1172 154.5781,201.4609 Q155.9063,199.8047 158.4063,199.8047 Q159.1094,199.8047 159.75,199.9609 Q160.4063,200.1172 160.9688,200.4141 L160.9688,203.1328 Q160.3438,202.5547 159.75,202.2891 Q159.1563,202.0078 158.5313,202.0078 Q157.1875,202.0078 156.5,203.0859 Q155.8125,204.1484 155.8125,206.2422 Q155.8125,208.3359 156.5,209.4141 Q157.1875,210.4766 158.5313,210.4766 Q159.1563,210.4766 159.75,210.2109 Q160.3438,209.9297 160.9688,209.3516 L160.9688,212.0703 Z " fill="#000000"/><text fill="#000000" font-family="sans-serif" font-size="12" font-style="italic" lengthAdjust="spacing" textLength="49.6113" x="221.6787" y="202.4355">&#171;struct&#187;</text><text fill="#102A43" font-family="sans-serif" font-size="14" lengthAdjust="spacing" textLength="148.9688" x="172" y="218.2607">MotionProfileSettings</text><line style="stroke:#284B63;stroke-width:0.5;" x1="144" x2="322.9688" y1="226.5625" y2="226.5625"/><ellipse cx="154" cy="240.2109" fill="none" rx="3" ry="3" style="stroke:#038048;stroke-width:1;"/><text fill="#000000" font-family="sans-serif" font-size="14" lengthAdjust="spacing" textLength="149.584" x="163" y="243.5576">sampleInterval : float</text><ellipse cx="154" cy="256.5078" fill="none" rx="3" ry="3" style="stroke:#038048;stroke-width:1;"/><text fill="#000000" font-family="sans-serif" font-size="14" lengthAdjust="spacing" textLength="131.5781" x="163" y="259.8545">maxVelocity : float</text><ellipse cx="154" cy="272.8047" fill="none" rx="3" ry="3" style="stroke:#038048;stroke-width:1;"/><text fill="#000000" font-family="sans-serif" font-size="14" lengthAdjust="spacing" textLength="131.3115" x="163" y="276.1514">acceleration : float</text><ellipse cx="154" cy="289.1016" fill="none" rx="3" ry="3" style="stroke:#038048;stroke-width:1;"/><text fill="#000000" font-family="sans-serif" font-size="14" lengthAdjust="spacing" textLength="132.5352" x="163" y="292.4482">deceleration : float</text><line style="stroke:#284B63;stroke-width:0.5;" x1="144" x2="322.9688" y1="299.75" y2="299.75"/><ellipse cx="154" cy="313.3984" fill="#84BE84" rx="3" ry="3" style="stroke:#038048;stroke-width:1;"/><text fill="#000000" font-family="sans-serif" font-size="14" lengthAdjust="spacing" textLength="111.6719" x="163" y="316.7451">Validate() : void</text></g><!--class TrajectorySample--><g class="entity" data-entity="TrajectorySample" data-source-line="22" data-uid="ent0003" id="entity_TrajectorySample"><rect fill="#F8F5EF" height="113.4531" rx="6" ry="6" style="stroke:#284B63;stroke-width:0.5;" width="155.6758" x="407.5" y="838.2969"/><ellipse cx="422.5" cy="858.4297" fill="#ADD1B2" rx="11" ry="11" style="stroke:#181818;stroke-width:1;"/><path d="M425.4688,864.0703 Q424.8906,864.3672 424.25,864.5078 Q423.6094,864.6641 422.9063,864.6641 Q420.4063,864.6641 419.0781,863.0234 Q417.7656,861.3672 417.7656,858.2422 Q417.7656,855.1172 419.0781,853.4609 Q420.4063,851.8047 422.9063,851.8047 Q423.6094,851.8047 424.25,851.9609 Q424.9063,852.1172 425.4688,852.4141 L425.4688,855.1328 Q424.8438,854.5547 424.25,854.2891 Q423.6563,854.0078 423.0313,854.0078 Q421.6875,854.0078 421,855.0859 Q420.3125,856.1484 420.3125,858.2422 Q420.3125,860.3359 421,861.4141 Q421.6875,862.4766 423.0313,862.4766 Q423.6563,862.4766 424.25,862.2109 Q424.8438,861.9297 425.4688,861.3516 L425.4688,864.0703 Z " fill="#000000"/><text fill="#000000" font-family="sans-serif" font-size="12" font-style="italic" lengthAdjust="spacing" textLength="106.0957" x="445.29" y="854.4355">&#171;readonly struct&#187;</text><text fill="#102A43" font-family="sans-serif" font-size="14" lengthAdjust="spacing" textLength="123.6758" x="436.5" y="870.2607">TrajectorySample</text><line style="stroke:#284B63;stroke-width:0.5;" x1="408.5" x2="562.1758" y1="878.5625" y2="878.5625"/><ellipse cx="418.5" cy="892.2109" fill="none" rx="3" ry="3" style="stroke:#038048;stroke-width:1;"/><text fill="#000000" font-family="sans-serif" font-size="14" lengthAdjust="spacing" textLength="79.7617" x="427.5" y="895.5576">Time : float</text><ellipse cx="418.5" cy="908.5078" fill="none" rx="3" ry="3" style="stroke:#038048;stroke-width:1;"/><text fill="#000000" font-family="sans-serif" font-size="14" lengthAdjust="spacing" textLength="106.2852" x="427.5" y="911.8545">Distance : float</text><ellipse cx="418.5" cy="924.8047" fill="none" rx="3" ry="3" style="stroke:#038048;stroke-width:1;"/><text fill="#000000" font-family="sans-serif" font-size="14" lengthAdjust="spacing" textLength="101.0762" x="427.5" y="928.1514">Velocity : float</text><ellipse cx="418.5" cy="941.1016" fill="none" rx="3" ry="3" style="stroke:#038048;stroke-width:1;"/><text fill="#000000" font-family="sans-serif" font-size="14" lengthAdjust="spacing" textLength="123.2314" x="427.5" y="944.4482">Position : Vector3</text></g><!--class TrajectoryPlan--><g class="entity" data-entity="TrajectoryPlan" data-source-line="29" data-uid="ent0004" id="entity_TrajectoryPlan"><rect fill="#F8F5EF" height="178.375" rx="6" ry="6" style="stroke:#284B63;stroke-width:0.5;" width="343.0166" x="314" y="583.2969"/><ellipse cx="430.7749" cy="599.2969" fill="#ADD1B2" rx="11" ry="11" style="stroke:#181818;stroke-width:1;"/><path d="M433.7437,604.9375 Q433.1655,605.2344 432.5249,605.375 Q431.8843,605.5313 431.1812,605.5313 Q428.6812,605.5313 427.353,603.8906 Q426.0405,602.2344 426.0405,599.1094 Q426.0405,595.9844 427.353,594.3281 Q428.6812,592.6719 431.1812,592.6719 Q431.8843,592.6719 432.5249,592.8281 Q433.1812,592.9844 433.7437,593.2813 L433.7437,596 Q433.1187,595.4219 432.5249,595.1563 Q431.9312,594.875 431.3062,594.875 Q429.9624,594.875 429.2749,595.9531 Q428.5874,597.0156 428.5874,599.1094 Q428.5874,601.2031 429.2749,602.2813 Q429.9624,603.3438 431.3062,603.3438 Q431.9312,603.3438 432.5249,603.0781 Q433.1187,602.7969 433.7437,602.2188 L433.7437,604.9375 Z " fill="#000000"/><text fill="#102A43" font-family="sans-serif" font-size="14" lengthAdjust="spacing" textLength="100.9668" x="451.2749" y="604.1436">TrajectoryPlan</text><line style="stroke:#284B63;stroke-width:0.5;" x1="315" x2="656.0166" y1="615.2969" y2="615.2969"/><ellipse cx="325" cy="628.9453" fill="none" rx="3" ry="3" style="stroke:#038048;stroke-width:1;"/><text fill="#000000" font-family="sans-serif" font-size="14" lengthAdjust="spacing" textLength="102.4229" x="334" y="632.292">Start : Vector3</text><ellipse cx="325" cy="645.2422" fill="none" rx="3" ry="3" style="stroke:#038048;stroke-width:1;"/><text fill="#000000" font-family="sans-serif" font-size="14" lengthAdjust="spacing" textLength="94.8281" x="334" y="648.5889">End : Vector3</text><ellipse cx="325" cy="661.5391" fill="none" rx="3" ry="3" style="stroke:#038048;stroke-width:1;"/><text fill="#000000" font-family="sans-serif" font-size="14" lengthAdjust="spacing" textLength="141.3604" x="334" y="664.8857">TotalDistance : float</text><ellipse cx="325" cy="677.8359" fill="none" rx="3" ry="3" style="stroke:#038048;stroke-width:1;"/><text fill="#000000" font-family="sans-serif" font-size="14" lengthAdjust="spacing" textLength="114.8369" x="334" y="681.1826">TotalTime : float</text><ellipse cx="325" cy="694.1328" fill="none" rx="3" ry="3" style="stroke:#038048;stroke-width:1;"/><text fill="#000000" font-family="sans-serif" font-size="14" lengthAdjust="spacing" textLength="134.8184" x="334" y="697.4795">PeakVelocity : float</text><ellipse cx="325" cy="710.4297" fill="none" rx="3" ry="3" style="stroke:#038048;stroke-width:1;"/><text fill="#000000" font-family="sans-serif" font-size="14" lengthAdjust="spacing" textLength="317.0166" x="334" y="713.7764">Samples : IReadOnlyList&lt;TrajectorySample&gt;</text><line style="stroke:#284B63;stroke-width:0.5;" x1="315" x2="656.0166" y1="721.0781" y2="721.0781"/><ellipse cx="325" cy="734.7266" fill="#84BE84" rx="3" ry="3" style="stroke:#038048;stroke-width:1;"/><text fill="#000000" font-family="sans-serif" font-size="14" lengthAdjust="spacing" textLength="226.9395" x="334" y="738.0732">EvaluatePosition(time) : Vector3</text><ellipse cx="325" cy="751.0234" fill="#84BE84" rx="3" ry="3" style="stroke:#038048;stroke-width:1;"/><text fill="#000000" font-family="sans-serif" font-size="14" lengthAdjust="spacing" textLength="204.7842" x="334" y="754.3701">EvaluateVelocity(time) : float</text></g><!--class TrapezoidalTrajectoryPlanner--><g class="entity" data-entity="TrapezoidalTrajectoryPlanner" data-source-line="40" data-uid="ent0005" id="entity_TrapezoidalTrajectoryPlanner"><rect fill="#F8F5EF" height="80.8594" rx="6" ry="6" style="stroke:#284B63;stroke-width:0.5;" width="452.9111" x="7" y="413.2969"/><ellipse cx="126.3281" cy="433.4297" fill="#ADD1B2" rx="11" ry="11" style="stroke:#181818;stroke-width:1;"/><path d="M129.2969,439.0703 Q128.7188,439.3672 128.0781,439.5078 Q127.4375,439.6641 126.7344,439.6641 Q124.2344,439.6641 122.9063,438.0234 Q121.5938,436.3672 121.5938,433.2422 Q121.5938,430.1172 122.9063,428.4609 Q124.2344,426.8047 126.7344,426.8047 Q127.4375,426.8047 128.0781,426.9609 Q128.7344,427.1172 129.2969,427.4141 L129.2969,430.1328 Q128.6719,429.5547 128.0781,429.2891 Q127.4844,429.0078 126.8594,429.0078 Q125.5156,429.0078 124.8281,430.0859 Q124.1406,431.1484 124.1406,433.2422 Q124.1406,435.3359 124.8281,436.4141 Q125.5156,437.4766 126.8594,437.4766 Q127.4844,437.4766 128.0781,437.2109 Q128.6719,436.9297 129.2969,436.3516 L129.2969,439.0703 Z " fill="#000000"/><text fill="#000000" font-family="sans-serif" font-size="12" font-style="italic" lengthAdjust="spacing" textLength="47.7598" x="225.8257" y="429.4355">&#171;static&#187;</text><text fill="#102A43" font-family="sans-serif" font-size="14" lengthAdjust="spacing" textLength="205.7549" x="146.8281" y="445.2607">TrapezoidalTrajectoryPlanner</text><line style="stroke:#284B63;stroke-width:0.5;" x1="8" x2="458.9111" y1="453.5625" y2="453.5625"/><ellipse cx="18" cy="467.2109" fill="#84BE84" rx="3" ry="3" style="stroke:#038048;stroke-width:1;"/><text fill="#000000" font-family="sans-serif" font-size="14" lengthAdjust="spacing" textLength="323.5039" x="27" y="470.5576">Generate(start, end, settings) : TrajectoryPlan</text><ellipse cx="18" cy="483.5078" fill="#84BE84" rx="3" ry="3" style="stroke:#038048;stroke-width:1;"/><text fill="#000000" font-family="sans-serif" font-size="14" lengthAdjust="spacing" textLength="426.9111" x="27" y="486.8545">Generate(start, end, settings, initialVelocity) : TrajectoryPlan</text></g><!--class TrajectoryDemoController--><g class="entity" data-entity="TrajectoryDemoController" data-source-line="45" data-uid="ent0006" id="entity_TrajectoryDemoController"><rect fill="#F8F5EF" height="113.4531" rx="6" ry="6" style="stroke:#284B63;stroke-width:0.5;" width="325.1338" x="543" y="198.7969"/><ellipse cx="610.3408" cy="218.9297" fill="#ADD1B2" rx="11" ry="11" style="stroke:#181818;stroke-width:1;"/><path d="M613.3096,224.5703 Q612.7314,224.8672 612.0908,225.0078 Q611.4502,225.1641 610.7471,225.1641 Q608.2471,225.1641 606.9189,223.5234 Q605.6064,221.8672 605.6064,218.7422 Q605.6064,215.6172 606.9189,213.9609 Q608.2471,212.3047 610.7471,212.3047 Q611.4502,212.3047 612.0908,212.4609 Q612.7471,212.6172 613.3096,212.9141 L613.3096,215.6328 Q612.6846,215.0547 612.0908,214.7891 Q611.4971,214.5078 610.8721,214.5078 Q609.5283,214.5078 608.8408,215.5859 Q608.1533,216.6484 608.1533,218.7422 Q608.1533,220.8359 608.8408,221.9141 Q609.5283,222.9766 610.8721,222.9766 Q611.4971,222.9766 612.0908,222.7109 Q612.6846,222.4297 613.3096,221.8516 L613.3096,224.5703 Z " fill="#000000"/><text fill="#000000" font-family="sans-serif" font-size="12" font-style="italic" lengthAdjust="spacing" textLength="108.3457" x="667.644" y="214.9355">&#171;MonoBehaviour&#187;</text><text fill="#102A43" font-family="sans-serif" font-size="14" lengthAdjust="spacing" textLength="181.9521" x="630.8408" y="230.7607">TrajectoryDemoController</text><line style="stroke:#284B63;stroke-width:0.5;" x1="544" x2="867.1338" y1="239.0625" y2="239.0625"/><ellipse cx="554" cy="252.7109" fill="#84BE84" rx="3" ry="3" style="stroke:#038048;stroke-width:1;"/><text fill="#000000" font-family="sans-serif" font-size="14" lengthAdjust="spacing" textLength="136.7188" x="563" y="256.0576">RebuildPlan() : void</text><ellipse cx="554" cy="269.0078" fill="#84BE84" rx="3" ry="3" style="stroke:#038048;stroke-width:1;"/><text fill="#000000" font-family="sans-serif" font-size="14" lengthAdjust="spacing" textLength="299.1338" x="563" y="272.3545">RebuildPlan(preserveCurrentMotion) : void</text><ellipse cx="554" cy="285.3047" fill="#84BE84" rx="3" ry="3" style="stroke:#038048;stroke-width:1;"/><text fill="#000000" font-family="sans-serif" font-size="14" lengthAdjust="spacing" textLength="83.3643" x="563" y="288.6514">Play() : void</text><ellipse cx="554" cy="301.6016" fill="#84BE84" rx="3" ry="3" style="stroke:#038048;stroke-width:1;"/><text fill="#000000" font-family="sans-serif" font-size="14" lengthAdjust="spacing" textLength="279.0225" x="563" y="304.9482">HandleControlPointChanged(role) : void</text></g><!--class TrajectoryControlPoint--><g class="entity" data-entity="TrajectoryControlPoint" data-source-line="52" data-uid="ent0007" id="entity_TrajectoryControlPoint"><rect fill="#F8F5EF" height="105.1563" rx="6" ry="6" style="stroke:#284B63;stroke-width:0.5;" width="241.5781" x="685.5" y="401.2969"/><ellipse cx="723.9998" cy="421.4297" fill="#ADD1B2" rx="11" ry="11" style="stroke:#181818;stroke-width:1;"/><path d="M726.9685,427.0703 Q726.3904,427.3672 725.7498,427.5078 Q725.1091,427.6641 724.406,427.6641 Q721.906,427.6641 720.5779,426.0234 Q719.2654,424.3672 719.2654,421.2422 Q719.2654,418.1172 720.5779,416.4609 Q721.906,414.8047 724.406,414.8047 Q725.1091,414.8047 725.7498,414.9609 Q726.406,415.1172 726.9685,415.4141 L726.9685,418.1328 Q726.3435,417.5547 725.7498,417.2891 Q725.156,417.0078 724.531,417.0078 Q723.1873,417.0078 722.4998,418.0859 Q721.8123,419.1484 721.8123,421.2422 Q721.8123,423.3359 722.4998,424.4141 Q723.1873,425.4766 724.531,425.4766 Q725.156,425.4766 725.7498,425.2109 Q726.3435,424.9297 726.9685,424.3516 L726.9685,427.0703 Z " fill="#000000"/><text fill="#000000" font-family="sans-serif" font-size="12" font-style="italic" lengthAdjust="spacing" textLength="108.3457" x="767.7273" y="417.4355">&#171;MonoBehaviour&#187;</text><text fill="#102A43" font-family="sans-serif" font-size="14" lengthAdjust="spacing" textLength="157.3564" x="743.2219" y="433.2607">TrajectoryControlPoint</text><line style="stroke:#284B63;stroke-width:0.5;" x1="686.5" x2="926.0781" y1="441.5625" y2="441.5625"/><ellipse cx="696.5" cy="455.2109" fill="none" rx="3" ry="3" style="stroke:#038048;stroke-width:1;"/><text fill="#000000" font-family="sans-serif" font-size="14" lengthAdjust="spacing" textLength="116.9697" x="705.5" y="458.5576">ControlPointRole</text><ellipse cx="696.5" cy="471.5078" fill="none" rx="3" ry="3" style="stroke:#038048;stroke-width:1;"/><text fill="#000000" font-family="sans-serif" font-size="14" lengthAdjust="spacing" textLength="72.3994" x="705.5" y="474.8545">DragPlane</text><line style="stroke:#284B63;stroke-width:0.5;" x1="686.5" x2="926.0781" y1="482.1563" y2="482.1563"/><ellipse cx="696.5" cy="495.8047" fill="#84BE84" rx="3" ry="3" style="stroke:#038048;stroke-width:1;"/><text fill="#000000" font-family="sans-serif" font-size="14" lengthAdjust="spacing" textLength="215.5781" x="705.5" y="499.1514">Initialize(controller, role) : void</text></g><!--class TrajectoryCameraSwitcher--><g class="entity" data-entity="TrajectoryCameraSwitcher" data-source-line="58" data-uid="ent0008" id="entity_TrajectoryCameraSwitcher"><rect fill="#F8F5EF" height="80.8594" rx="6" ry="6" style="stroke:#284B63;stroke-width:0.5;" width="302.5957" x="963" y="413.2969"/><ellipse cx="1016.6587" cy="433.4297" fill="#ADD1B2" rx="11" ry="11" style="stroke:#181818;stroke-width:1;"/><path d="M1019.6274,439.0703 Q1019.0493,439.3672 1018.4087,439.5078 Q1017.7681,439.6641 1017.0649,439.6641 Q1014.5649,439.6641 1013.2368,438.0234 Q1011.9243,436.3672 1011.9243,433.2422 Q1011.9243,430.1172 1013.2368,428.4609 Q1014.5649,426.8047 1017.0649,426.8047 Q1017.7681,426.8047 1018.4087,426.9609 Q1019.0649,427.1172 1019.6274,427.4141 L1019.6274,430.1328 Q1019.0024,429.5547 1018.4087,429.2891 Q1017.8149,429.0078 1017.1899,429.0078 Q1015.8462,429.0078 1015.1587,430.0859 Q1014.4712,431.1484 1014.4712,433.2422 Q1014.4712,435.3359 1015.1587,436.4141 Q1015.8462,437.4766 1017.1899,437.4766 Q1017.8149,437.4766 1018.4087,437.2109 Q1019.0024,436.9297 1019.6274,436.3516 L1019.6274,439.0703 Z " fill="#000000"/><text fill="#000000" font-family="sans-serif" font-size="12" font-style="italic" lengthAdjust="spacing" textLength="108.3457" x="1076.375" y="429.4355">&#171;MonoBehaviour&#187;</text><text fill="#102A43" font-family="sans-serif" font-size="14" lengthAdjust="spacing" textLength="186.7783" x="1037.1587" y="445.2607">TrajectoryCameraSwitcher</text><line style="stroke:#284B63;stroke-width:0.5;" x1="964" x2="1264.5957" y1="453.5625" y2="453.5625"/><ellipse cx="974" cy="467.2109" fill="#84BE84" rx="3" ry="3" style="stroke:#038048;stroke-width:1;"/><text fill="#000000" font-family="sans-serif" font-size="14" lengthAdjust="spacing" textLength="276.5957" x="983" y="470.5576">SetCameras(configuredCameras) : void</text><ellipse cx="974" cy="483.5078" fill="#84BE84" rx="3" ry="3" style="stroke:#038048;stroke-width:1;"/><text fill="#000000" font-family="sans-serif" font-size="14" lengthAdjust="spacing" textLength="205.2764" x="983" y="486.8545">ActivateCamera(index) : void</text></g><!--class TrajectoryCameraController--><g class="entity" data-entity="TrajectoryCameraController" data-source-line="63" data-uid="ent0009" id="entity_TrajectoryCameraController"><rect fill="#F8F5EF" height="97.1563" rx="6" ry="6" style="stroke:#284B63;stroke-width:0.5;" width="227.2959" x="1001" y="623.7969"/><ellipse cx="1016" cy="643.9297" fill="#ADD1B2" rx="11" ry="11" style="stroke:#181818;stroke-width:1;"/><path d="M1018.9688,649.5703 Q1018.3906,649.8672 1017.75,650.0078 Q1017.1094,650.1641 1016.4063,650.1641 Q1013.9063,650.1641 1012.5781,648.5234 Q1011.2656,646.8672 1011.2656,643.7422 Q1011.2656,640.6172 1012.5781,638.9609 Q1013.9063,637.3047 1016.4063,637.3047 Q1017.1094,637.3047 1017.75,637.4609 Q1018.4063,637.6172 1018.9688,637.9141 L1018.9688,640.6328 Q1018.3438,640.0547 1017.75,639.7891 Q1017.1563,639.5078 1016.5313,639.5078 Q1015.1875,639.5078 1014.5,640.5859 Q1013.8125,641.6484 1013.8125,643.7422 Q1013.8125,645.8359 1014.5,646.9141 Q1015.1875,647.9766 1016.5313,647.9766 Q1017.1563,647.9766 1017.75,647.7109 Q1018.3438,647.4297 1018.9688,646.8516 L1018.9688,649.5703 Z " fill="#000000"/><text fill="#000000" font-family="sans-serif" font-size="12" font-style="italic" lengthAdjust="spacing" textLength="108.3457" x="1073.4751" y="639.9355">&#171;MonoBehaviour&#187;</text><text fill="#102A43" font-family="sans-serif" font-size="14" lengthAdjust="spacing" textLength="195.2959" x="1030" y="655.7607">TrajectoryCameraController</text><line style="stroke:#284B63;stroke-width:0.5;" x1="1002" x2="1227.2959" y1="664.0625" y2="664.0625"/><ellipse cx="1012" cy="677.7109" fill="#84BE84" rx="3" ry="3" style="stroke:#038048;stroke-width:1;"/><text fill="#000000" font-family="sans-serif" font-size="14" lengthAdjust="spacing" textLength="104.8701" x="1021" y="681.0576">Update() : void</text><ellipse cx="1012" cy="694.0078" fill="#84BE84" rx="3" ry="3" style="stroke:#038048;stroke-width:1;"/><text fill="#000000" font-family="sans-serif" font-size="14" lengthAdjust="spacing" textLength="164.0488" x="1021" y="697.3545">UpdateRotation() : void</text><ellipse cx="1012" cy="710.3047" fill="#84BE84" rx="3" ry="3" style="stroke:#038048;stroke-width:1;"/><text fill="#000000" font-family="sans-serif" font-size="14" lengthAdjust="spacing" textLength="183.21" x="1021" y="713.6514">UpdateTranslation() : void</text></g><!--class TrajectoryDemoBootstrap--><g class="entity" data-entity="TrajectoryDemoBootstrap" data-source-line="69" data-uid="ent0010" id="entity_TrajectoryDemoBootstrap"><rect fill="#F8F5EF" height="64.5625" rx="6" ry="6" style="stroke:#284B63;stroke-width:0.5;" width="299.0273" x="556" y="44.2969"/><ellipse cx="610.7593" cy="64.4297" fill="#ADD1B2" rx="11" ry="11" style="stroke:#181818;stroke-width:1;"/><path d="M613.728,70.0703 Q613.1499,70.3672 612.5093,70.5078 Q611.8687,70.6641 611.1655,70.6641 Q608.6655,70.6641 607.3374,69.0234 Q606.0249,67.3672 606.0249,64.2422 Q606.0249,61.1172 607.3374,59.4609 Q608.6655,57.8047 611.1655,57.8047 Q611.8687,57.8047 612.5093,57.9609 Q613.1655,58.1172 613.728,58.4141 L613.728,61.1328 Q613.103,60.5547 612.5093,60.2891 Q611.9155,60.0078 611.2905,60.0078 Q609.9468,60.0078 609.2593,61.0859 Q608.5718,62.1484 608.5718,64.2422 Q608.5718,66.3359 609.2593,67.4141 Q609.9468,68.4766 611.2905,68.4766 Q611.9155,68.4766 612.5093,68.2109 Q613.103,67.9297 613.728,67.3516 L613.728,70.0703 Z " fill="#000000"/><text fill="#000000" font-family="sans-serif" font-size="12" font-style="italic" lengthAdjust="spacing" textLength="47.7598" x="697.8838" y="60.4355">&#171;static&#187;</text><text fill="#102A43" font-family="sans-serif" font-size="14" lengthAdjust="spacing" textLength="181.0088" x="631.2593" y="76.2607">TrajectoryDemoBootstrap</text><line style="stroke:#284B63;stroke-width:0.5;" x1="557" x2="854.0273" y1="84.5625" y2="84.5625"/><ellipse cx="567" cy="98.2109" fill="#84BE84" rx="3" ry="3" style="stroke:#038048;stroke-width:1;"/><text fill="#000000" font-family="sans-serif" font-size="14" lengthAdjust="spacing" textLength="273.0273" x="576" y="101.5576">CreateDemoControllerIfMissing() : void</text></g><!--link MotionProfileSettings to TrapezoidalTrajectoryPlanner--><g class="link" data-entity-1="MotionProfileSettings" data-entity-2="TrapezoidalTrajectoryPlanner" data-source-line="73" data-uid="lnk11" id="link_MotionProfileSettings_TrapezoidalTrajectoryPlanner"><path codeLine="73" d="M233.5,324.4669 C233.5,354.0669 233.5,381.6969 233.5,407.0969" fill="none" id="MotionProfileSettings-to-TrapezoidalTrajectoryPlanner" style="stroke:#284B63;stroke-width:1;stroke-dasharray:7,7;"/><polygon fill="#284B63" points="233.5,413.0969,237.5,404.0969,233.5,408.0969,229.5,404.0969,233.5,413.0969" style="stroke:#284B63;stroke-width:1;"/><text fill="#000000" font-family="sans-serif" font-size="13" lengthAdjust="spacing" textLength="68.1357" x="234.5" y="367.3638">configures</text></g><!--link TrapezoidalTrajectoryPlanner to TrajectoryPlan--><g class="link" data-entity-1="TrapezoidalTrajectoryPlanner" data-entity-2="TrajectoryPlan" data-source-line="74" data-uid="lnk12" id="link_TrapezoidalTrajectoryPlanner_TrajectoryPlan"><path codeLine="74" d="M279.72,494.5069 C308.64,519.3469 342.5188,548.4571 378.3488,579.2371" fill="none" id="TrapezoidalTrajectoryPlanner-to-TrajectoryPlan" style="stroke:#284B63;stroke-width:1;stroke-dasharray:7,7;"/><polygon fill="#284B63" points="382.9,583.1469,378.6797,574.2481,379.1073,579.8887,373.4666,580.3164,382.9,583.1469" style="stroke:#284B63;stroke-width:1;"/><text fill="#000000" font-family="sans-serif" font-size="13" lengthAdjust="spacing" textLength="65.6665" x="345.5" y="549.3638">generates</text></g><!--reverse link TrajectoryPlan to TrajectorySample--><g class="link" data-entity-1="TrajectoryPlan" data-entity-2="TrajectorySample" data-source-line="75" data-uid="lnk13" id="link_TrajectoryPlan_TrajectorySample"><path codeLine="75" d="M485.5,773.3969 C485.5,799.3069 485.5,814.9169 485.5,838.1869" fill="none" id="TrajectoryPlan-backto-TrajectorySample" style="stroke:#284B63;stroke-width:1;"/><polygon fill="#284B63" points="485.5,761.3969,481.5,767.3969,485.5,773.3969,489.5,767.3969,485.5,761.3969" style="stroke:#284B63;stroke-width:1;"/><text fill="#000000" font-family="sans-serif" font-size="13" lengthAdjust="spacing" textLength="55.0278" x="486.5" y="804.3638">contains</text></g><!--link TrajectoryDemoController to TrapezoidalTrajectoryPlanner--><g class="link" data-entity-1="TrajectoryDemoController" data-entity-2="TrapezoidalTrajectoryPlanner" data-source-line="76" data-uid="lnk14" id="link_TrajectoryDemoController_TrapezoidalTrajectoryPlanner"><path codeLine="76" d="M572.14,311.8169 C494.58,344.1069 404.1991,381.7306 334.2591,410.8506" fill="none" id="TrajectoryDemoController-to-TrapezoidalTrajectoryPlanner" style="stroke:#284B63;stroke-width:1;stroke-dasharray:7,7;"/><polygon fill="#284B63" points="328.72,413.1569,338.5661,413.3902,333.3359,411.235,335.4911,406.0048,328.72,413.1569" style="stroke:#284B63;stroke-width:1;"/><text fill="#000000" font-family="sans-serif" font-size="13" lengthAdjust="spacing" textLength="29.7832" x="470.5" y="367.3638">uses</text></g><!--link TrajectoryDemoController to TrajectoryPlan--><g class="link" data-entity-1="TrajectoryDemoController" data-entity-2="TrajectoryPlan" data-source-line="77" data-uid="lnk15" id="link_TrajectoryDemoController_TrajectoryPlan"><path codeLine="77" d="M627.75,311.9569 C598.89,336.3169 568.38,367.1469 548.5,401.2969 C516.17,456.8269 501.2547,521.9238 493.5847,577.1938" fill="none" id="TrajectoryDemoController-to-TrajectoryPlan" style="stroke:#284B63;stroke-width:1;"/><polygon fill="#284B63" points="492.76,583.1369,497.9591,574.7721,493.4473,578.1843,490.0351,573.6725,492.76,583.1369" style="stroke:#284B63;stroke-width:1;"/><text fill="#000000" font-family="sans-serif" font-size="13" lengthAdjust="spacing" textLength="118.5742" x="549.5" y="458.3638">holds current plan</text></g><!--link TrajectoryControlPoint to TrajectoryDemoController--><g class="link" data-entity-1="TrajectoryControlPoint" data-entity-2="TrajectoryDemoController" data-source-line="78" data-uid="lnk16" id="link_TrajectoryControlPoint_TrajectoryDemoController"><path codeLine="78" d="M788.14,401.1269 C782.13,385.7869 775.05,369.1369 767.5,354.2969 C760.33,340.2069 754.9113,330.634 746.4313,317.074" fill="none" id="TrajectoryControlPoint-to-TrajectoryDemoController" style="stroke:#284B63;stroke-width:1;stroke-dasharray:7,7;"/><polygon fill="#284B63" points="743.25,311.9869,744.6306,321.7385,745.9011,316.2262,751.4134,317.4967,743.25,311.9869" style="stroke:#284B63;stroke-width:1;"/><text fill="#000000" font-family="sans-serif" font-size="13" lengthAdjust="spacing" textLength="140.5562" x="775.5" y="367.3638">notifies drag changes</text></g><!--reverse link TrajectoryDemoController to TrajectoryControlPoint--><g class="link" data-entity-1="TrajectoryDemoController" data-entity-2="TrajectoryControlPoint" data-source-line="79" data-uid="lnk17" id="link_TrajectoryDemoController_TrajectoryControlPoint"><path codeLine="79" d="M689.5937,323.7542 C687.2737,343.4142 689.49,353.2169 698.5,371.2969 C704,382.3369 711.78,392.2769 720.69,401.0969" fill="none" id="TrajectoryDemoController-backto-TrajectoryControlPoint" style="stroke:#284B63;stroke-width:1;"/><polygon fill="none" points="691,311.8369,686.3244,317.3268,689.5937,323.7542,694.2693,318.2643,691,311.8369" style="stroke:#284B63;stroke-width:1;"/><text fill="#000000" font-family="sans-serif" font-size="13" lengthAdjust="spacing" textLength="59.8584" x="699.5" y="367.3638">manages</text></g><!--reverse link TrajectoryDemoController to TrajectoryCameraSwitcher--><g class="link" data-entity-1="TrajectoryDemoController" data-entity-2="TrajectoryCameraSwitcher" data-source-line="80" data-uid="lnk18" id="link_TrajectoryDemoController_TrajectoryCameraSwitcher"><path codeLine="80" d="M843.8252,316.7266 C874.0152,330.2966 895.05,340.0869 924.5,354.2969 C963.15,372.9469 1005.6,394.8169 1040.55,413.2069" fill="none" id="TrajectoryDemoController-backto-TrajectoryCameraSwitcher" style="stroke:#284B63;stroke-width:1;"/><polygon fill="none" points="832.88,311.8069,836.7127,317.9151,843.8252,316.7266,839.9925,310.6183,832.88,311.8069" style="stroke:#284B63;stroke-width:1;"/><text fill="#000000" font-family="sans-serif" font-size="13" lengthAdjust="spacing" textLength="59.8584" x="956.5" y="367.3638">manages</text></g><!--reverse link TrajectoryCameraSwitcher to TrajectoryCameraController--><g class="link" data-entity-1="TrajectoryCameraSwitcher" data-entity-2="TrajectoryCameraController" data-source-line="81" data-uid="lnk19" id="link_TrajectoryCameraSwitcher_TrajectoryCameraController"><path codeLine="81" d="M1114.5,506.5069 C1114.5,542.8869 1114.5,584.8069 1114.5,623.5269" fill="none" id="TrajectoryCameraSwitcher-backto-TrajectoryCameraController" style="stroke:#284B63;stroke-width:1;"/><polygon fill="none" points="1114.5,494.5069,1110.5,500.5069,1114.5,506.5069,1118.5,500.5069,1114.5,494.5069" style="stroke:#284B63;stroke-width:1;"/><text fill="#000000" font-family="sans-serif" font-size="13" lengthAdjust="spacing" textLength="165.585" x="1115.5" y="549.3638">activates / owns cameras</text></g><!--link TrajectoryDemoBootstrap to TrajectoryDemoController--><g class="link" data-entity-1="TrajectoryDemoBootstrap" data-entity-2="TrajectoryDemoController" data-source-line="82" data-uid="lnk20" id="link_TrajectoryDemoBootstrap_TrajectoryDemoController"><path codeLine="82" d="M705.5,109.3469 C705.5,134.1369 705.5,163.2769 705.5,192.7469" fill="none" id="TrajectoryDemoBootstrap-to-TrajectoryDemoController" style="stroke:#284B63;stroke-width:1;stroke-dasharray:7,7;"/><polygon fill="#284B63" points="705.5,198.7469,709.5,189.7469,705.5,193.7469,701.5,189.7469,705.5,198.7469" style="stroke:#284B63;stroke-width:1;"/><text fill="#000000" font-family="sans-serif" font-size="13" lengthAdjust="spacing" textLength="80.52" x="706.5" y="152.3638">creates host</text></g><!--SRC=[bLLTRzem57tFhx2q5xf1jtRz4ggG2YqRKj4Gj7rtxGjuTUp8TcZfjF- -woJGE8IqUyozn-UU-nadd0HoP-XlO4wRDPb8gfHG2t8_leqY-oHKGWsDoIDbJmkZKyK7Mcf3FWtxmy7mfeHWabhRtu5T34zlXZimRJYO0d9yST8_-rw5N1cZdniHGwrS0JZwTdnrKWPO1mQqMoTGGfqEpixFhyke9UNwsMSxfz92oPEbmBHHOCZHSHGj1GS2SUBM98Ru4OoDeam46Midj9eOFHSIPk0SqbboUMcTIPdhzSYVY90lnD8uaJ1Ig6j59UcIkTJKPQwOlZo0r4mWUTbE6GC9Xdh-mC5XZ-E1Ii6fWzO1cbTQyEZlHkPRYsUP4bHe0BDNSaqgKkz4307jjR2EAXOQQoLFj1M5geSislSw1Nx6YbWpHuqheRtjHl6AvKuxAcjLP9uTmHEWJxNwyjmjsaPJpFuNPd-Bj9VLwlHo8TYf5CkvoQhbCD11LMq1siJRWlAevVGJUCMUeDwW4dx4_BXWEzcs1pz0-GP3o_e2jGaetYQsc2xF7dAy_wPDXC8agDpeh26fQTKrn7g06sIqb9dEiLQw3qkw4ZerMxbJU4o5v9xbRVQgZiI0nUc7GMeCA9SlJe16s3fy_vCgBg5GCD42Ttb9rG9u2x-XQSpBR_Rg7kKr4Q_GOjiisoJWzhWosHIT-LeOkl29GMru6cCpPi_2iML3uV1Wv4Zh1Sp58ZN02qkWu8eviSBcvhwMK1nU6jFFS1zetNqINemtsrIxxCJK-J2GihBYtZC_VQqTdXYQx8xv06-GWt38HlEni1PdDY2kFxE7XxtcnUgIRLbjr8WigCedgaiMnKfbRykkpvtExadDWZagL1bUsQ0FA4ujD11qEZKwbrfoIrY-M2Jnoxnd4y8qAznTeh3CSu4NakDm4vRjMeCO7PGX2DJ5_vgY__Cwt9YwznL8tViW6reiZILVYNvMMA5yiw9z0_fETLWshXRBRTq_]--></g></svg>